{"title":"The.Notebook.2013.DVDRip.x264.AC3.HORiZON-ArtSubs","uid":10340458,"size":1812989211,"categoryP":"video","categoryS":"movies","magnet":"?xt=urn:btih:c2ea2c36c8e5221b6c45d2b62fb041a5382540f0&amp;dn=The.Notebook.2013.DVDRip.x264.AC3.HORiZON-ArtSubs&amp;tr=udp%3A%2F%2Ftracker.openbittorrent.com%3A80&amp;tr=udp%3A%2F%2Fopen.demonii.com%3A1337&amp;tr=udp%3A%2F%2Ftracker.coppersurfer.tk%3A6969&amp;tr=udp%3A%2F%2Fexodus.desync.com%3A6969","seeders":14,"leechers":1,"uploader":"lletaif","files":1,"time":1402535675,"description":"Title:\nThe Notebook Aka A nagy fuzet\n\n\nCountry:\nHungary, 2013\n\n\nLanguage:\nHungarian (maygar)\n\n\nSubtitle:\nEnglish\n\n\nIMDB: &lt;a href=&quot;\nhttp://www.imdb.com/title/tt2324384&quot; rel=&quot;nofollow&quot; target=&quot;_NEW&quot;&gt;\nhttp://www.imdb.com/title/tt2324384&lt;/a&gt;\n\n\nTrivia:\nOfficial submission of Hungary to the Oscars 2014 best foreign language film category.\n\n\nSynopsis:\nTwin siblings enduring the harshness of WWII in a village on the Hungarian border hedge their survival on studying and learning from the evil surrounding them.\n\n\n\nMedia Info:\n\nGeneral\nUnique ID                                : 140741260087838014274199794868100110443 (0x69E1C7DD5B7ED59008E866A5F0D5986B)\nComplete name                            : The.Notebook.2013.DVDRip.x264.AC3.HORiZON-ArtSubs.mkv\nFormat                                   : Matroska\nFormat version                           : Version 2\nFile size                                : 1.69 GiB\nDuration                                 : 1h 47mn\nOverall bit rate                         : 2 244 Kbps\nWriting application                      : HandBrake 0.9.5\nWriting library                          : libmkv 0.6.4.1\n\nVideo\nID                                       : 1\nFormat                                   : AVC\nFormat/Info                              : Advanced Video Codec\nFormat profile                           : &lt;a class=&quot;__cf_email__&quot; href=&quot;/cdn-cgi/l/email-protection&quot; data-cfemail=&quot;2a62434d426a6619041a&quot;&gt;[email&amp;#160;protected]&lt;/a&gt;&lt;script cf-hash='f9e31' type=&quot;text/javascript&quot;&gt;\n/* &lt;![CDATA[ */!function(){try{var t=&quot;currentScript&quot;in document?document.currentScript:function(){for(var t=document.getElementsByTagName(&quot;script&quot;),e=t.length;e--;)if(t[e].getAttribute(&quot;cf-hash&quot;))return t[e]}();if(t&amp;&amp;t.previousSibling){var e,r,n,i,c=t.previousSibling,a=c.getAttribute(&quot;data-cfemail&quot;);if(a){for(e=&quot;&quot;,r=parseInt(a.substr(0,2),16),n=2;a.length-n;n+=2)i=parseInt(a.substr(n,2),16)^r,e+=String.fromCharCode(i);e=document.createTextNode(e),c.parentNode.replaceChild(e,c)}}}catch(u){}}();/* ]]&gt; */&lt;/script&gt;\nFormat settings, CABAC                   : Yes\nFormat settings, ReFrames                : 4 frames\nCodec ID                                 : V_MPEG4/ISO/AVC\nDuration                                 : 1h 47mn\nBit rate                                 : 1 755 Kbps\nWidth                                    : 720 pixels\nHeight                                   : 432 pixels\nDisplay aspect ratio                     : 2.40:1\nOriginal display aspect ratio            : 2.40:1\nFrame rate mode                          : Constant\nFrame rate                               : 25.000 fps\nColor space                              : YUV\nChroma subsampling                       : 4:2:0\nBit depth                                : 8 bits\nScan type                                : Progressive\nBits/(Pixel*Frame)                       : 0.226\nStream size                              : 1.32 GiB (78%)\nWriting library                          : x264 core 112\nEncoding settings                        : cabac=1 / ref=3 / deblock=1:0:0 / analyse=0x3:0x113 / me=hex / subme=7 / psy=1 / psy_rd=1.00:0.00 / mixed_ref=1 / me_range=16 / chroma_me=1 / trellis=1 / 8x8dct=1 / cqm=0 / deadzone=21,11 / fast_pskip=1 / chroma_qp_offset=-2 / threads=6 / sliced_threads=0 / nr=0 / decimate=1 / interlaced=0 / constrained_intra=0 / bframes=3 / b_pyramid=2 / b_adapt=2 / b_bias=0 / direct=1 / weightb=1 / open_gop=0 / weightp=2 / keyint=250 / keyint_min=25 / scenecut=40 / intra_refresh=0 / rc_lookahead=50 / rc=abr / mbtree=1 / bitrate=1755 / ratetol=1.0 / qcomp=0.60 / qpmin=3 / qpmax=51 / qpstep=4 / ip_ratio=1.40 / aq=1:1.00\nLanguage                                 : English\nDefault                                  : Yes\nForced                                   : No\nColor primaries                          : BT.601 NTSC\nTransfer characteristics                 : BT.709\nMatrix coefficients                      : BT.601\n\nAudio\nID                                       : 2\nFormat                                   : AC-3\nFormat/Info                              : Audio Coding 3\nMode extension                           : CM (complete main)\nFormat settings, Endianness              : Big\nCodec ID                                 : A_AC3\nDuration                                 : 1h 47mn\nBit rate mode                            : Constant\nBit rate                                 : 448 Kbps\nChannel(s)                               : 6 channels\nChannel positions                        : Front: L C R, Side: L R, LFE\nSampling rate                            : 48.0 KHz\nBit depth                                : 16 bits\nCompression mode                         : Lossy\nStream size                              : 345 MiB (20%)\nLanguage                                 : Hungarian\nDefault                                  : Yes\nForced                                   : No\n\nText\nID                                       : 3\nFormat                                   : VobSub\nCodec ID                                 : S_VOBSUB\nCodec ID/Info                            : The same subtitle format used on DVDs\nLanguage                                 : English\nDefault                                  : No\nForced                                   : No\n\nMenu\n00:00:00.000                             : Chapter 1\n00:06:08.360                             : Chapter 2\n00:17:17.000                             : Chapter 3\n00:20:16.920                             : Chapter 4\n00:36:05.760                             : Chapter 5\n00:50:13.160                             : Chapter 6\n01:02:03.920                             : Chapter 7\n01:07:19.560                             : Chapter 8\n01:15:47.640                             : Chapter 9\n01:30:53.840                             : Chapter 10\n01:39:36.280                             : Chapter 11\n01:42:48.000                             : Chapter 12\n\n","torrent":{"xt":"urn:btih:c2ea2c36c8e5221b6c45d2b62fb041a5382540f0","amp;dn":"The.Notebook.2013.DVDRip.x264.AC3.HORiZON-ArtSubs","amp;tr":["udp%3A%2F%2Ftracker.openbittorrent.com%3A80","udp%3A%2F%2Fopen.demonii.com%3A1337","udp%3A%2F%2Ftracker.coppersurfer.tk%3A6969","udp%3A%2F%2Fexodus.desync.com%3A6969"],"infoHash":"c2ea2c36c8e5221b6c45d2b62fb041a5382540f0","infoHashBuffer":{"type":"Buffer","data":[194,234,44,54,200,229,34,27,108,69,210,182,47,176,65,165,56,37,64,240]},"announce":[],"urlList":[]}}